<svg xmlns="http://www.w3.org/2000/svg" width="1200" height="290" viewBox="0 0 1200 290"><rect width="1200" height="290" rx="16" fill="#0d1117"/><text x="55" y="51" font-family="Arial,sans-serif" font-size="14" fill="#858b97" font-weight="400" text-anchor="start">02 / LANGUAGES &amp; TOOLS</text><rect x="55" y="80" width="170" height="66" rx="9" fill="#121419" stroke="#30333b"/><text x="140" y="120" font-family="Arial,sans-serif" font-size="17" fill="#e0e3e9" font-weight="500" text-anchor="middle">JavaScript</text><rect x="240" y="80" width="170" height="66" rx="9" fill="#121419" stroke="#30333b"/><text x="325" y="120" font-family="Arial,sans-serif" font-size="17" fill="#e0e3e9" font-weight="500" text-anchor="middle">TypeScript</text><rect x="425" y="80" width="170" height="66" rx="9" fill="#121419" stroke="#30333b"/><text x="510" y="120" font-family="Arial,sans-serif" font-size="17" fill="#e0e3e9" font-weight="500" text-anchor="middle">React / Next.js</text><rect x="610" y="80" width="170" height="66" rx="9" fill="#121419" stroke="#30333b"/><text x="695" y="120" font-family="Arial,sans-serif" font-size="17" fill="#e0e3e9" font-weight="500" text-anchor="middle">Node.js</text><rect x="795" y="80" width="170" height="66" rx="9" fill="#121419" stroke="#30333b"/><text x="880" y="120" font-family="Arial,sans-serif" font-size="17" fill="#e0e3e9" font-weight="500" text-anchor="middle">PHP</text><rect x="980" y="80" width="170" height="66" rx="9" fill="#121419" stroke="#30333b"/><text x="1065" y="120" font-family="Arial,sans-serif" font-size="17" fill="#e0e3e9" font-weight="500" text-anchor="middle">PostgreSQL</text><rect x="55" y="168" width="170" height="66" rx="9" fill="#121419" stroke="#30333b"/><text x="140" y="208" font-family="Arial,sans-serif" font-size="17" fill="#e0e3e9" font-weight="500" text-anchor="middle">HTML / CSS</text><rect x="240" y="168" width="170" height="66" rx="9" fill="#121419" stroke="#30333b"/><text x="325" y="208" font-family="Arial,sans-serif" font-size="17" fill="#e0e3e9" font-weight="500" text-anchor="middle">Python</text><rect x="425" y="168" width="170" height="66" rx="9" fill="#121419" stroke="#30333b"/><text x="510" y="208" font-family="Arial,sans-serif" font-size="17" fill="#e0e3e9" font-weight="500" text-anchor="middle">Linux</text><rect x="610" y="168" width="170" height="66" rx="9" fill="#121419" stroke="#30333b"/><text x="695" y="208" font-family="Arial,sans-serif" font-size="17" fill="#e0e3e9" font-weight="500" text-anchor="middle">Rust / Tauri</text><rect x="795" y="168" width="170" height="66" rx="9" fill="#121419" stroke="#30333b"/><text x="880" y="208" font-family="Arial,sans-serif" font-size="17" fill="#e0e3e9" font-weight="500" text-anchor="middle">Go</text><rect x="980" y="168" width="170" height="66" rx="9" fill="#121419" stroke="#30333b"/><text x="1065" y="208" font-family="Arial,sans-serif" font-size="17" fill="#e0e3e9" font-weight="500" text-anchor="middle">Git / GitHub</text></svg>